<svg width="3000" height="1000" viewBox="0 0 3000 1000" fill="none" xmlns="http://www.w3.org/2000/svg">
<g filter="url(#filter0_d_21_35)">
<path d="M513.58 579.79C557.763 579.79 593.58 543.973 593.58 499.79C593.58 455.607 557.763 419.79 513.58 419.79C469.397 419.79 433.58 455.607 433.58 499.79C433.58 543.973 469.397 579.79 513.58 579.79Z" fill="url(#paint0_radial_21_35)"/>
<path d="M513.58 389.79C535.671 389.79 553.58 371.881 553.58 349.79C553.58 327.699 535.671 309.79 513.58 309.79C491.489 309.79 473.58 327.699 473.58 349.79C473.58 371.881 491.489 389.79 513.58 389.79Z" fill="url(#paint1_radial_21_35)"/>
<path d="M575.69 314C606.066 314 630.69 289.376 630.69 259C630.69 228.624 606.066 204 575.69 204C545.314 204 520.69 228.624 520.69 259C520.69 289.376 545.314 314 575.69 314Z" fill="url(#paint2_radial_21_35)"/>
<path d="M562.02 436.12C527.91 410.17 532.44 391.07 545.41 374.01H481.75C494.72 391.07 499.25 410.17 465.14 436.12H562.02Z" fill="url(#paint3_radial_21_35)"/>
<path d="M553.31 345.12C551.21 327.27 557.57 316.51 582.11 313.63L522.45 272.81C528.66 296.73 520.93 306.56 503.54 311.07L553.31 345.12Z" fill="url(#paint4_radial_21_35)"/>
<path d="M643.48 464.79C665.571 464.79 683.48 446.881 683.48 424.79C683.48 402.699 665.571 384.79 643.48 384.79C621.389 384.79 603.48 402.699 603.48 424.79C603.48 446.881 621.389 464.79 643.48 464.79Z" fill="url(#paint5_radial_21_35)"/>
<path d="M753.16 488.19C783.536 488.19 808.16 463.566 808.16 433.19C808.16 402.814 783.536 378.19 753.16 378.19C722.784 378.19 698.16 402.814 698.16 433.19C698.16 463.566 722.784 488.19 753.16 488.19Z" fill="url(#paint6_radial_21_35)"/>
<path d="M592.94 509.91C598.36 467.39 617.16 461.76 638.42 464.47L606.59 409.33C598.31 429.1 584.03 442.57 544.49 426L592.94 509.91Z" fill="url(#paint7_radial_21_35)"/>
<path d="M667.39 456.86C681.8 446.12 694.3 446.25 709.07 466.06L714.58 393.98C696.97 411.32 684.6 409.54 671.99 396.73L667.39 456.86Z" fill="url(#paint8_radial_21_35)"/>
<path d="M643.48 614.79C665.571 614.79 683.48 596.881 683.48 574.79C683.48 552.699 665.571 534.79 643.48 534.79C621.389 534.79 603.48 552.699 603.48 574.79C603.48 596.881 621.389 614.79 643.48 614.79Z" fill="url(#paint9_radial_21_35)"/>
<path d="M691.05 728.97C721.426 728.97 746.05 704.346 746.05 673.97C746.05 643.594 721.426 618.97 691.05 618.97C660.674 618.97 636.05 643.594 636.05 673.97C636.05 704.346 660.674 728.97 691.05 728.97Z" fill="url(#paint10_radial_21_35)"/>
<path d="M544.49 573.58C584.03 557.01 598.31 570.48 606.59 590.25L638.42 535.11C617.16 537.82 598.36 532.19 592.94 489.67L544.49 573.58Z" fill="url(#paint11_radial_21_35)"/>
<path d="M627.66 611.53C644.17 618.64 650.31 629.53 640.54 652.22L705.71 620.96C681.9 614.38 677.25 602.77 682.04 585.45L627.66 611.53Z" fill="url(#paint12_radial_21_35)"/>
<path d="M513.58 689.79C535.671 689.79 553.58 671.881 553.58 649.79C553.58 627.699 535.671 609.79 513.58 609.79C491.489 609.79 473.58 627.699 473.58 649.79C473.58 671.881 491.489 689.79 513.58 689.79Z" fill="url(#paint13_radial_21_35)"/>
<path d="M451.47 795.58C481.846 795.58 506.47 770.956 506.47 740.58C506.47 710.204 481.846 685.58 451.47 685.58C421.094 685.58 396.47 710.204 396.47 740.58C396.47 770.956 421.094 795.58 451.47 795.58Z" fill="url(#paint14_radial_21_35)"/>
<path d="M465.14 563.46C499.25 589.41 494.72 608.51 481.75 625.57H545.41C532.44 608.51 527.91 589.41 562.02 563.46H465.14Z" fill="url(#paint15_radial_21_35)"/>
<path d="M473.85 654.46C475.95 672.31 469.59 683.07 445.05 685.95L504.71 726.77C498.5 702.85 506.23 693.02 523.62 688.51L473.85 654.46Z" fill="url(#paint16_radial_21_35)"/>
<path d="M383.68 614.79C405.771 614.79 423.68 596.881 423.68 574.79C423.68 552.699 405.771 534.79 383.68 534.79C361.589 534.79 343.68 552.699 343.68 574.79C343.68 596.881 361.589 614.79 383.68 614.79Z" fill="url(#paint17_radial_21_35)"/>
<path d="M274 621.39C304.376 621.39 329 596.766 329 566.39C329 536.014 304.376 511.39 274 511.39C243.624 511.39 219 536.014 219 566.39C219 596.766 243.624 621.39 274 621.39Z" fill="url(#paint18_radial_21_35)"/>
<path d="M434.22 489.67C428.8 532.19 410 537.82 388.74 535.11L420.57 590.25C428.85 570.48 443.13 557.01 482.67 573.58L434.22 489.67Z" fill="url(#paint19_radial_21_35)"/>
<path d="M359.77 542.72C345.36 553.46 332.86 553.33 318.09 533.52L312.58 605.6C330.19 588.26 342.56 590.04 355.17 602.85L359.77 542.72Z" fill="url(#paint20_radial_21_35)"/>
<path d="M383.68 464.79C405.771 464.79 423.68 446.881 423.68 424.79C423.68 402.699 405.771 384.79 383.68 384.79C361.589 384.79 343.68 402.699 343.68 424.79C343.68 446.881 361.589 464.79 383.68 464.79Z" fill="url(#paint21_radial_21_35)"/>
<path d="M336.11 380.61C366.486 380.61 391.11 355.986 391.11 325.61C391.11 295.234 366.486 270.61 336.11 270.61C305.734 270.61 281.11 295.234 281.11 325.61C281.11 355.986 305.734 380.61 336.11 380.61Z" fill="url(#paint22_radial_21_35)"/>
<path d="M482.67 426C443.13 442.57 428.85 429.1 420.57 409.33L388.74 464.47C410 461.76 428.8 467.39 434.22 509.91L482.67 426Z" fill="url(#paint23_radial_21_35)"/>
<path d="M399.5 388.05C382.99 380.94 376.85 370.05 386.62 347.36L321.45 378.62C345.26 385.2 349.91 396.81 345.12 414.13L399.5 388.05Z" fill="url(#paint24_radial_21_35)"/>
</g>
<path d="M1030.75 658V343H1062.25V658H1030.75ZM1122.88 658V343H1157.08L1323.35 601.075V343H1354.85V658H1320.88L1154.38 399.925V658H1122.88ZM1518.99 663.85C1502.19 663.85 1485.91 661.225 1470.16 655.975C1454.56 650.725 1440.91 643.225 1429.21 633.475C1417.51 623.725 1409.26 612.1 1404.46 598.6L1433.94 587.575C1437.24 596.875 1443.24 604.9 1451.94 611.65C1460.79 618.25 1471.06 623.35 1482.76 626.95C1494.61 630.55 1506.69 632.35 1518.99 632.35C1533.39 632.35 1546.81 629.95 1559.26 625.15C1571.71 620.35 1581.76 613.675 1589.41 605.125C1597.06 596.425 1600.89 586.225 1600.89 574.525C1600.89 562.675 1596.91 552.925 1588.96 545.275C1581.01 537.625 1570.74 531.625 1558.14 527.275C1545.69 522.775 1532.64 519.325 1518.99 516.925C1497.54 513.175 1478.26 508.075 1461.16 501.625C1444.21 495.175 1430.79 486.1 1420.89 474.4C1410.99 462.55 1406.04 446.95 1406.04 427.6C1406.04 409.45 1411.29 393.7 1421.79 380.35C1432.29 367 1446.09 356.65 1463.19 349.3C1480.44 341.95 1499.04 338.275 1518.99 338.275C1535.34 338.275 1551.31 340.825 1566.91 345.925C1582.51 351.025 1596.24 358.45 1608.09 368.2C1620.09 377.95 1628.71 389.875 1633.96 403.975L1604.04 414.775C1600.74 405.325 1594.66 397.3 1585.81 390.7C1577.11 383.95 1566.91 378.85 1555.21 375.4C1543.51 371.8 1531.44 370 1518.99 370C1504.74 369.85 1491.39 372.25 1478.94 377.2C1466.64 382 1456.66 388.75 1449.01 397.45C1441.36 406 1437.54 416.05 1437.54 427.6C1437.54 441.1 1441.06 451.525 1448.11 458.875C1455.31 466.075 1465.06 471.475 1477.36 475.075C1489.66 478.675 1503.54 481.9 1518.99 484.75C1539.09 488.2 1557.76 493.6 1575.01 500.95C1592.26 508.15 1606.14 517.825 1616.64 529.975C1627.14 541.975 1632.39 556.825 1632.39 574.525C1632.39 592.525 1627.14 608.275 1616.64 621.775C1606.14 635.125 1592.26 645.475 1575.01 652.825C1557.91 660.175 1539.24 663.85 1518.99 663.85ZM1869.2 343H1906.32L1800.12 515.35V658H1768.62V515.35L1662.65 343H1699.77L1784.37 480.925L1869.2 343ZM2185.13 343V374.5H2077.13V658H2045.63V374.5H1937.85V343H2185.13ZM2296.71 343H2335.86L2450.61 658H2417.09L2392.56 590.5H2240.24L2215.71 658H2182.19L2296.71 343ZM2251.71 559H2380.86L2316.29 381.7L2251.71 559Z" fill="#000B1A"/>
<defs>
<filter id="filter0_d_21_35" x="215" y="204" width="597.16" height="599.58" filterUnits="userSpaceOnUse" color-interpolation-filters="sRGB">
<feFlood flood-opacity="0" result="BackgroundImageFix"/>
<feColorMatrix in="SourceAlpha" type="matrix" values="0 0 0 0 0 0 0 0 0 0 0 0 0 0 0 0 0 0 127 0" result="hardAlpha"/>
<feOffset dy="4"/>
<feGaussianBlur stdDeviation="2"/>
<feComposite in2="hardAlpha" operator="out"/>
<feColorMatrix type="matrix" values="0 0 0 0 0 0 0 0 0 0 0 0 0 0 0 0 0 0 0.25 0"/>
<feBlend mode="normal" in2="BackgroundImageFix" result="effect1_dropShadow_21_35"/>
<feBlend mode="normal" in="SourceGraphic" in2="effect1_dropShadow_21_35" result="shape"/>
</filter>
<radialGradient id="paint0_radial_21_35" cx="0" cy="0" r="1" gradientUnits="userSpaceOnUse" gradientTransform="translate(527.5 500) rotate(56.6373) scale(946.473 1106.37)">
<stop stop-color="#6BE78E"/>
<stop offset="1" stop-color="white"/>
</radialGradient>
<radialGradient id="paint1_radial_21_35" cx="0" cy="0" r="1" gradientUnits="userSpaceOnUse" gradientTransform="translate(527.5 500) rotate(56.6373) scale(946.473 1106.37)">
<stop stop-color="#6BE78E"/>
<stop offset="1" stop-color="white"/>
</radialGradient>
<radialGradient id="paint2_radial_21_35" cx="0" cy="0" r="1" gradientUnits="userSpaceOnUse" gradientTransform="translate(527.5 500) rotate(56.6373) scale(946.473 1106.37)">
<stop stop-color="#6BE78E"/>
<stop offset="1" stop-color="white"/>
</radialGradient>
<radialGradient id="paint3_radial_21_35" cx="0" cy="0" r="1" gradientUnits="userSpaceOnUse" gradientTransform="translate(527.5 500) rotate(56.6373) scale(946.473 1106.37)">
<stop stop-color="#6BE78E"/>
<stop offset="1" stop-color="white"/>
</radialGradient>
<radialGradient id="paint4_radial_21_35" cx="0" cy="0" r="1" gradientUnits="userSpaceOnUse" gradientTransform="translate(527.5 500) rotate(56.6373) scale(946.473 1106.37)">
<stop stop-color="#6BE78E"/>
<stop offset="1" stop-color="white"/>
</radialGradient>
<radialGradient id="paint5_radial_21_35" cx="0" cy="0" r="1" gradientUnits="userSpaceOnUse" gradientTransform="translate(527.5 500) rotate(56.6373) scale(946.473 1106.37)">
<stop stop-color="#6BE78E"/>
<stop offset="1" stop-color="white"/>
</radialGradient>
<radialGradient id="paint6_radial_21_35" cx="0" cy="0" r="1" gradientUnits="userSpaceOnUse" gradientTransform="translate(527.5 500) rotate(56.6373) scale(946.473 1106.37)">
<stop stop-color="#6BE78E"/>
<stop offset="1" stop-color="white"/>
</radialGradient>
<radialGradient id="paint7_radial_21_35" cx="0" cy="0" r="1" gradientUnits="userSpaceOnUse" gradientTransform="translate(527.5 500) rotate(56.6373) scale(946.473 1106.37)">
<stop stop-color="#6BE78E"/>
<stop offset="1" stop-color="white"/>
</radialGradient>
<radialGradient id="paint8_radial_21_35" cx="0" cy="0" r="1" gradientUnits="userSpaceOnUse" gradientTransform="translate(527.5 500) rotate(56.6373) scale(946.473 1106.37)">
<stop stop-color="#6BE78E"/>
<stop offset="1" stop-color="white"/>
</radialGradient>
<radialGradient id="paint9_radial_21_35" cx="0" cy="0" r="1" gradientUnits="userSpaceOnUse" gradientTransform="translate(527.5 500) rotate(56.6373) scale(946.473 1106.37)">
<stop stop-color="#6BE78E"/>
<stop offset="1" stop-color="white"/>
</radialGradient>
<radialGradient id="paint10_radial_21_35" cx="0" cy="0" r="1" gradientUnits="userSpaceOnUse" gradientTransform="translate(527.5 500) rotate(56.6373) scale(946.473 1106.37)">
<stop stop-color="#6BE78E"/>
<stop offset="1" stop-color="white"/>
</radialGradient>
<radialGradient id="paint11_radial_21_35" cx="0" cy="0" r="1" gradientUnits="userSpaceOnUse" gradientTransform="translate(527.5 500) rotate(56.6373) scale(946.473 1106.37)">
<stop stop-color="#6BE78E"/>
<stop offset="1" stop-color="white"/>
</radialGradient>
<radialGradient id="paint12_radial_21_35" cx="0" cy="0" r="1" gradientUnits="userSpaceOnUse" gradientTransform="translate(527.5 500) rotate(56.6373) scale(946.473 1106.37)">
<stop stop-color="#6BE78E"/>
<stop offset="1" stop-color="white"/>
</radialGradient>
<radialGradient id="paint13_radial_21_35" cx="0" cy="0" r="1" gradientUnits="userSpaceOnUse" gradientTransform="translate(527.5 500) rotate(56.6373) scale(946.473 1106.37)">
<stop stop-color="#6BE78E"/>
<stop offset="1" stop-color="white"/>
</radialGradient>
<radialGradient id="paint14_radial_21_35" cx="0" cy="0" r="1" gradientUnits="userSpaceOnUse" gradientTransform="translate(527.5 500) rotate(56.6373) scale(946.473 1106.37)">
<stop stop-color="#6BE78E"/>
<stop offset="1" stop-color="white"/>
</radialGradient>
<radialGradient id="paint15_radial_21_35" cx="0" cy="0" r="1" gradientUnits="userSpaceOnUse" gradientTransform="translate(527.5 500) rotate(56.6373) scale(946.473 1106.37)">
<stop stop-color="#6BE78E"/>
<stop offset="1" stop-color="white"/>
</radialGradient>
<radialGradient id="paint16_radial_21_35" cx="0" cy="0" r="1" gradientUnits="userSpaceOnUse" gradientTransform="translate(527.5 500) rotate(56.6373) scale(946.473 1106.37)">
<stop stop-color="#6BE78E"/>
<stop offset="1" stop-color="white"/>
</radialGradient>
<radialGradient id="paint17_radial_21_35" cx="0" cy="0" r="1" gradientUnits="userSpaceOnUse" gradientTransform="translate(527.5 500) rotate(56.6373) scale(946.473 1106.37)">
<stop stop-color="#6BE78E"/>
<stop offset="1" stop-color="white"/>
</radialGradient>
<radialGradient id="paint18_radial_21_35" cx="0" cy="0" r="1" gradientUnits="userSpaceOnUse" gradientTransform="translate(527.5 500) rotate(56.6373) scale(946.473 1106.37)">
<stop stop-color="#6BE78E"/>
<stop offset="1" stop-color="white"/>
</radialGradient>
<radialGradient id="paint19_radial_21_35" cx="0" cy="0" r="1" gradientUnits="userSpaceOnUse" gradientTransform="translate(527.5 500) rotate(56.6373) scale(946.473 1106.37)">
<stop stop-color="#6BE78E"/>
<stop offset="1" stop-color="white"/>
</radialGradient>
<radialGradient id="paint20_radial_21_35" cx="0" cy="0" r="1" gradientUnits="userSpaceOnUse" gradientTransform="translate(527.5 500) rotate(56.6373) scale(946.473 1106.37)">
<stop stop-color="#6BE78E"/>
<stop offset="1" stop-color="white"/>
</radialGradient>
<radialGradient id="paint21_radial_21_35" cx="0" cy="0" r="1" gradientUnits="userSpaceOnUse" gradientTransform="translate(527.5 500) rotate(56.6373) scale(946.473 1106.37)">
<stop stop-color="#6BE78E"/>
<stop offset="1" stop-color="white"/>
</radialGradient>
<radialGradient id="paint22_radial_21_35" cx="0" cy="0" r="1" gradientUnits="userSpaceOnUse" gradientTransform="translate(527.5 500) rotate(56.6373) scale(946.473 1106.37)">
<stop stop-color="#6BE78E"/>
<stop offset="1" stop-color="white"/>
</radialGradient>
<radialGradient id="paint23_radial_21_35" cx="0" cy="0" r="1" gradientUnits="userSpaceOnUse" gradientTransform="translate(527.5 500) rotate(56.6373) scale(946.473 1106.37)">
<stop stop-color="#6BE78E"/>
<stop offset="1" stop-color="white"/>
</radialGradient>
<radialGradient id="paint24_radial_21_35" cx="0" cy="0" r="1" gradientUnits="userSpaceOnUse" gradientTransform="translate(527.5 500) rotate(56.6373) scale(946.473 1106.37)">
<stop stop-color="#6BE78E"/>
<stop offset="1" stop-color="white"/>
</radialGradient>
</defs>
</svg>
