<svg width="3000" height="1000" viewBox="0 0 3000 1000" fill="none" xmlns="http://www.w3.org/2000/svg">
<g filter="url(#filter0_d_21_25)">
<path d="M513.58 579.79C557.763 579.79 593.58 543.973 593.58 499.79C593.58 455.607 557.763 419.79 513.58 419.79C469.397 419.79 433.58 455.607 433.58 499.79C433.58 543.973 469.397 579.79 513.58 579.79Z" fill="url(#paint0_radial_21_25)"/>
<path d="M513.58 389.79C535.671 389.79 553.58 371.881 553.58 349.79C553.58 327.699 535.671 309.79 513.58 309.79C491.489 309.79 473.58 327.699 473.58 349.79C473.58 371.881 491.489 389.79 513.58 389.79Z" fill="url(#paint1_radial_21_25)"/>
<path d="M575.69 314C606.066 314 630.69 289.376 630.69 259C630.69 228.624 606.066 204 575.69 204C545.314 204 520.69 228.624 520.69 259C520.69 289.376 545.314 314 575.69 314Z" fill="url(#paint2_radial_21_25)"/>
<path d="M562.02 436.12C527.91 410.17 532.44 391.07 545.41 374.01H481.75C494.72 391.07 499.25 410.17 465.14 436.12H562.02Z" fill="url(#paint3_radial_21_25)"/>
<path d="M553.31 345.12C551.21 327.27 557.57 316.51 582.11 313.63L522.45 272.81C528.66 296.73 520.93 306.56 503.54 311.07L553.31 345.12Z" fill="url(#paint4_radial_21_25)"/>
<path d="M643.48 464.79C665.571 464.79 683.48 446.881 683.48 424.79C683.48 402.699 665.571 384.79 643.48 384.79C621.389 384.79 603.48 402.699 603.48 424.79C603.48 446.881 621.389 464.79 643.48 464.79Z" fill="url(#paint5_radial_21_25)"/>
<path d="M753.16 488.19C783.536 488.19 808.16 463.566 808.16 433.19C808.16 402.814 783.536 378.19 753.16 378.19C722.784 378.19 698.16 402.814 698.16 433.19C698.16 463.566 722.784 488.19 753.16 488.19Z" fill="url(#paint6_radial_21_25)"/>
<path d="M592.94 509.91C598.36 467.39 617.16 461.76 638.42 464.47L606.59 409.33C598.31 429.1 584.03 442.57 544.49 426L592.94 509.91Z" fill="url(#paint7_radial_21_25)"/>
<path d="M667.39 456.86C681.8 446.12 694.3 446.25 709.07 466.06L714.58 393.98C696.97 411.32 684.6 409.54 671.99 396.73L667.39 456.86Z" fill="url(#paint8_radial_21_25)"/>
<path d="M643.48 614.79C665.571 614.79 683.48 596.881 683.48 574.79C683.48 552.699 665.571 534.79 643.48 534.79C621.389 534.79 603.48 552.699 603.48 574.79C603.48 596.881 621.389 614.79 643.48 614.79Z" fill="url(#paint9_radial_21_25)"/>
<path d="M691.05 728.97C721.426 728.97 746.05 704.346 746.05 673.97C746.05 643.594 721.426 618.97 691.05 618.97C660.674 618.97 636.05 643.594 636.05 673.97C636.05 704.346 660.674 728.97 691.05 728.97Z" fill="url(#paint10_radial_21_25)"/>
<path d="M544.49 573.58C584.03 557.01 598.31 570.48 606.59 590.25L638.42 535.11C617.16 537.82 598.36 532.19 592.94 489.67L544.49 573.58Z" fill="url(#paint11_radial_21_25)"/>
<path d="M627.66 611.53C644.17 618.64 650.31 629.53 640.54 652.22L705.71 620.96C681.9 614.38 677.25 602.77 682.04 585.45L627.66 611.53Z" fill="url(#paint12_radial_21_25)"/>
<path d="M513.58 689.79C535.671 689.79 553.58 671.881 553.58 649.79C553.58 627.699 535.671 609.79 513.58 609.79C491.489 609.79 473.58 627.699 473.58 649.79C473.58 671.881 491.489 689.79 513.58 689.79Z" fill="url(#paint13_radial_21_25)"/>
<path d="M451.47 795.58C481.846 795.58 506.47 770.956 506.47 740.58C506.47 710.204 481.846 685.58 451.47 685.58C421.094 685.58 396.47 710.204 396.47 740.58C396.47 770.956 421.094 795.58 451.47 795.58Z" fill="url(#paint14_radial_21_25)"/>
<path d="M465.14 563.46C499.25 589.41 494.72 608.51 481.75 625.57H545.41C532.44 608.51 527.91 589.41 562.02 563.46H465.14Z" fill="url(#paint15_radial_21_25)"/>
<path d="M473.85 654.46C475.95 672.31 469.59 683.07 445.05 685.95L504.71 726.77C498.5 702.85 506.23 693.02 523.62 688.51L473.85 654.46Z" fill="url(#paint16_radial_21_25)"/>
<path d="M383.68 614.79C405.771 614.79 423.68 596.881 423.68 574.79C423.68 552.699 405.771 534.79 383.68 534.79C361.589 534.79 343.68 552.699 343.68 574.79C343.68 596.881 361.589 614.79 383.68 614.79Z" fill="url(#paint17_radial_21_25)"/>
<path d="M274 621.39C304.376 621.39 329 596.766 329 566.39C329 536.014 304.376 511.39 274 511.39C243.624 511.39 219 536.014 219 566.39C219 596.766 243.624 621.39 274 621.39Z" fill="url(#paint18_radial_21_25)"/>
<path d="M434.22 489.67C428.8 532.19 410 537.82 388.74 535.11L420.57 590.25C428.85 570.48 443.13 557.01 482.67 573.58L434.22 489.67Z" fill="url(#paint19_radial_21_25)"/>
<path d="M359.77 542.72C345.36 553.46 332.86 553.33 318.09 533.52L312.58 605.6C330.19 588.26 342.56 590.04 355.17 602.85L359.77 542.72Z" fill="url(#paint20_radial_21_25)"/>
<path d="M383.68 464.79C405.771 464.79 423.68 446.881 423.68 424.79C423.68 402.699 405.771 384.79 383.68 384.79C361.589 384.79 343.68 402.699 343.68 424.79C343.68 446.881 361.589 464.79 383.68 464.79Z" fill="url(#paint21_radial_21_25)"/>
<path d="M336.11 380.61C366.486 380.61 391.11 355.986 391.11 325.61C391.11 295.234 366.486 270.61 336.11 270.61C305.734 270.61 281.11 295.234 281.11 325.61C281.11 355.986 305.734 380.61 336.11 380.61Z" fill="url(#paint22_radial_21_25)"/>
<path d="M482.67 426C443.13 442.57 428.85 429.1 420.57 409.33L388.74 464.47C410 461.76 428.8 467.39 434.22 509.91L482.67 426Z" fill="url(#paint23_radial_21_25)"/>
<path d="M399.5 388.05C382.99 380.94 376.85 370.05 386.62 347.36L321.45 378.62C345.26 385.2 349.91 396.81 345.12 414.13L399.5 388.05Z" fill="url(#paint24_radial_21_25)"/>
</g>
<path d="M1030.75 658V343H1068.55V658H1030.75ZM1129.47 658V343H1170.42L1327.69 589.6V343H1365.49V658H1324.77L1167.27 411.4V658H1129.47ZM1530.43 663.85C1513.48 663.85 1497.13 661.225 1481.38 655.975C1465.63 650.575 1451.83 642.925 1439.98 633.025C1428.28 623.125 1419.96 611.35 1415.01 597.7L1450.33 584.425C1453.33 592.825 1458.88 600.175 1466.98 606.475C1475.23 612.625 1484.91 617.425 1496.01 620.875C1507.11 624.325 1518.58 626.05 1530.43 626.05C1543.93 626.05 1556.46 623.875 1568.01 619.525C1579.71 615.025 1589.16 608.8 1596.36 600.85C1603.56 592.9 1607.16 583.6 1607.16 572.95C1607.16 562 1603.41 553.075 1595.91 546.175C1588.41 539.125 1578.81 533.575 1567.11 529.525C1555.41 525.325 1543.18 522.1 1530.43 519.85C1508.68 516.25 1489.18 511.15 1471.93 504.55C1454.83 497.8 1441.26 488.425 1431.21 476.425C1421.31 464.425 1416.36 448.6 1416.36 428.95C1416.36 410.65 1421.61 394.675 1432.11 381.025C1442.76 367.375 1456.78 356.8 1474.18 349.3C1491.58 341.8 1510.33 338.05 1530.43 338.05C1547.08 338.05 1563.21 340.675 1578.81 345.925C1594.56 351.025 1608.43 358.525 1620.43 368.425C1632.43 378.325 1641.06 390.4 1646.31 404.65L1610.53 417.7C1607.53 409.15 1601.91 401.8 1593.66 395.65C1585.56 389.35 1575.96 384.55 1564.86 381.25C1553.91 377.8 1542.43 376.075 1530.43 376.075C1517.08 375.925 1504.63 378.1 1493.08 382.6C1481.53 387.1 1472.16 393.325 1464.96 401.275C1457.76 409.225 1454.16 418.45 1454.16 428.95C1454.16 441.55 1457.46 451.225 1464.06 457.975C1470.81 464.575 1479.96 469.525 1491.51 472.825C1503.06 476.125 1516.03 479.05 1530.43 481.6C1550.83 485.05 1569.73 490.525 1587.13 498.025C1604.53 505.375 1618.48 515.2 1628.98 527.5C1639.63 539.8 1644.96 554.95 1644.96 572.95C1644.96 591.25 1639.63 607.225 1628.98 620.875C1618.48 634.525 1604.53 645.1 1587.13 652.6C1569.73 660.1 1550.83 663.85 1530.43 663.85ZM1878.87 343H1923.42L1816.77 515.575V658H1778.97V515.575L1672.32 343H1716.87L1797.87 474.175L1878.87 343ZM2202.27 343V380.8H2097.42V658H2059.62V380.8H1954.99V343H2202.27ZM2312.97 343H2358.65L2473.17 658H2433.12L2409.72 593.65H2261.9L2238.72 658H2198.45L2312.97 343ZM2275.85 555.85H2395.77L2335.7 391.375L2275.85 555.85Z" fill="white"/>
<defs>
<filter id="filter0_d_21_25" x="215" y="204" width="597.16" height="599.58" filterUnits="userSpaceOnUse" color-interpolation-filters="sRGB">
<feFlood flood-opacity="0" result="BackgroundImageFix"/>
<feColorMatrix in="SourceAlpha" type="matrix" values="0 0 0 0 0 0 0 0 0 0 0 0 0 0 0 0 0 0 127 0" result="hardAlpha"/>
<feOffset dy="4"/>
<feGaussianBlur stdDeviation="2"/>
<feComposite in2="hardAlpha" operator="out"/>
<feColorMatrix type="matrix" values="0 0 0 0 0 0 0 0 0 0 0 0 0 0 0 0 0 0 0.25 0"/>
<feBlend mode="normal" in2="BackgroundImageFix" result="effect1_dropShadow_21_25"/>
<feBlend mode="normal" in="SourceGraphic" in2="effect1_dropShadow_21_25" result="shape"/>
</filter>
<radialGradient id="paint0_radial_21_25" cx="0" cy="0" r="1" gradientUnits="userSpaceOnUse" gradientTransform="translate(527.5 500) rotate(56.6373) scale(946.473 1106.37)">
<stop stop-color="#6BE78E"/>
<stop offset="1" stop-color="white"/>
</radialGradient>
<radialGradient id="paint1_radial_21_25" cx="0" cy="0" r="1" gradientUnits="userSpaceOnUse" gradientTransform="translate(527.5 500) rotate(56.6373) scale(946.473 1106.37)">
<stop stop-color="#6BE78E"/>
<stop offset="1" stop-color="white"/>
</radialGradient>
<radialGradient id="paint2_radial_21_25" cx="0" cy="0" r="1" gradientUnits="userSpaceOnUse" gradientTransform="translate(527.5 500) rotate(56.6373) scale(946.473 1106.37)">
<stop stop-color="#6BE78E"/>
<stop offset="1" stop-color="white"/>
</radialGradient>
<radialGradient id="paint3_radial_21_25" cx="0" cy="0" r="1" gradientUnits="userSpaceOnUse" gradientTransform="translate(527.5 500) rotate(56.6373) scale(946.473 1106.37)">
<stop stop-color="#6BE78E"/>
<stop offset="1" stop-color="white"/>
</radialGradient>
<radialGradient id="paint4_radial_21_25" cx="0" cy="0" r="1" gradientUnits="userSpaceOnUse" gradientTransform="translate(527.5 500) rotate(56.6373) scale(946.473 1106.37)">
<stop stop-color="#6BE78E"/>
<stop offset="1" stop-color="white"/>
</radialGradient>
<radialGradient id="paint5_radial_21_25" cx="0" cy="0" r="1" gradientUnits="userSpaceOnUse" gradientTransform="translate(527.5 500) rotate(56.6373) scale(946.473 1106.37)">
<stop stop-color="#6BE78E"/>
<stop offset="1" stop-color="white"/>
</radialGradient>
<radialGradient id="paint6_radial_21_25" cx="0" cy="0" r="1" gradientUnits="userSpaceOnUse" gradientTransform="translate(527.5 500) rotate(56.6373) scale(946.473 1106.37)">
<stop stop-color="#6BE78E"/>
<stop offset="1" stop-color="white"/>
</radialGradient>
<radialGradient id="paint7_radial_21_25" cx="0" cy="0" r="1" gradientUnits="userSpaceOnUse" gradientTransform="translate(527.5 500) rotate(56.6373) scale(946.473 1106.37)">
<stop stop-color="#6BE78E"/>
<stop offset="1" stop-color="white"/>
</radialGradient>
<radialGradient id="paint8_radial_21_25" cx="0" cy="0" r="1" gradientUnits="userSpaceOnUse" gradientTransform="translate(527.5 500) rotate(56.6373) scale(946.473 1106.37)">
<stop stop-color="#6BE78E"/>
<stop offset="1" stop-color="white"/>
</radialGradient>
<radialGradient id="paint9_radial_21_25" cx="0" cy="0" r="1" gradientUnits="userSpaceOnUse" gradientTransform="translate(527.5 500) rotate(56.6373) scale(946.473 1106.37)">
<stop stop-color="#6BE78E"/>
<stop offset="1" stop-color="white"/>
</radialGradient>
<radialGradient id="paint10_radial_21_25" cx="0" cy="0" r="1" gradientUnits="userSpaceOnUse" gradientTransform="translate(527.5 500) rotate(56.6373) scale(946.473 1106.37)">
<stop stop-color="#6BE78E"/>
<stop offset="1" stop-color="white"/>
</radialGradient>
<radialGradient id="paint11_radial_21_25" cx="0" cy="0" r="1" gradientUnits="userSpaceOnUse" gradientTransform="translate(527.5 500) rotate(56.6373) scale(946.473 1106.37)">
<stop stop-color="#6BE78E"/>
<stop offset="1" stop-color="white"/>
</radialGradient>
<radialGradient id="paint12_radial_21_25" cx="0" cy="0" r="1" gradientUnits="userSpaceOnUse" gradientTransform="translate(527.5 500) rotate(56.6373) scale(946.473 1106.37)">
<stop stop-color="#6BE78E"/>
<stop offset="1" stop-color="white"/>
</radialGradient>
<radialGradient id="paint13_radial_21_25" cx="0" cy="0" r="1" gradientUnits="userSpaceOnUse" gradientTransform="translate(527.5 500) rotate(56.6373) scale(946.473 1106.37)">
<stop stop-color="#6BE78E"/>
<stop offset="1" stop-color="white"/>
</radialGradient>
<radialGradient id="paint14_radial_21_25" cx="0" cy="0" r="1" gradientUnits="userSpaceOnUse" gradientTransform="translate(527.5 500) rotate(56.6373) scale(946.473 1106.37)">
<stop stop-color="#6BE78E"/>
<stop offset="1" stop-color="white"/>
</radialGradient>
<radialGradient id="paint15_radial_21_25" cx="0" cy="0" r="1" gradientUnits="userSpaceOnUse" gradientTransform="translate(527.5 500) rotate(56.6373) scale(946.473 1106.37)">
<stop stop-color="#6BE78E"/>
<stop offset="1" stop-color="white"/>
</radialGradient>
<radialGradient id="paint16_radial_21_25" cx="0" cy="0" r="1" gradientUnits="userSpaceOnUse" gradientTransform="translate(527.5 500) rotate(56.6373) scale(946.473 1106.37)">
<stop stop-color="#6BE78E"/>
<stop offset="1" stop-color="white"/>
</radialGradient>
<radialGradient id="paint17_radial_21_25" cx="0" cy="0" r="1" gradientUnits="userSpaceOnUse" gradientTransform="translate(527.5 500) rotate(56.6373) scale(946.473 1106.37)">
<stop stop-color="#6BE78E"/>
<stop offset="1" stop-color="white"/>
</radialGradient>
<radialGradient id="paint18_radial_21_25" cx="0" cy="0" r="1" gradientUnits="userSpaceOnUse" gradientTransform="translate(527.5 500) rotate(56.6373) scale(946.473 1106.37)">
<stop stop-color="#6BE78E"/>
<stop offset="1" stop-color="white"/>
</radialGradient>
<radialGradient id="paint19_radial_21_25" cx="0" cy="0" r="1" gradientUnits="userSpaceOnUse" gradientTransform="translate(527.5 500) rotate(56.6373) scale(946.473 1106.37)">
<stop stop-color="#6BE78E"/>
<stop offset="1" stop-color="white"/>
</radialGradient>
<radialGradient id="paint20_radial_21_25" cx="0" cy="0" r="1" gradientUnits="userSpaceOnUse" gradientTransform="translate(527.5 500) rotate(56.6373) scale(946.473 1106.37)">
<stop stop-color="#6BE78E"/>
<stop offset="1" stop-color="white"/>
</radialGradient>
<radialGradient id="paint21_radial_21_25" cx="0" cy="0" r="1" gradientUnits="userSpaceOnUse" gradientTransform="translate(527.5 500) rotate(56.6373) scale(946.473 1106.37)">
<stop stop-color="#6BE78E"/>
<stop offset="1" stop-color="white"/>
</radialGradient>
<radialGradient id="paint22_radial_21_25" cx="0" cy="0" r="1" gradientUnits="userSpaceOnUse" gradientTransform="translate(527.5 500) rotate(56.6373) scale(946.473 1106.37)">
<stop stop-color="#6BE78E"/>
<stop offset="1" stop-color="white"/>
</radialGradient>
<radialGradient id="paint23_radial_21_25" cx="0" cy="0" r="1" gradientUnits="userSpaceOnUse" gradientTransform="translate(527.5 500) rotate(56.6373) scale(946.473 1106.37)">
<stop stop-color="#6BE78E"/>
<stop offset="1" stop-color="white"/>
</radialGradient>
<radialGradient id="paint24_radial_21_25" cx="0" cy="0" r="1" gradientUnits="userSpaceOnUse" gradientTransform="translate(527.5 500) rotate(56.6373) scale(946.473 1106.37)">
<stop stop-color="#6BE78E"/>
<stop offset="1" stop-color="white"/>
</radialGradient>
</defs>
</svg>
