<svg width="598" height="600" viewBox="0 0 598 600" fill="none" xmlns="http://www.w3.org/2000/svg">
<g filter="url(#filter0_d_20_45)">
<path d="M298.58 375.79C342.763 375.79 378.58 339.973 378.58 295.79C378.58 251.607 342.763 215.79 298.58 215.79C254.397 215.79 218.58 251.607 218.58 295.79C218.58 339.973 254.397 375.79 298.58 375.79Z" fill="url(#paint0_radial_20_45)"/>
<path d="M298.58 185.79C320.671 185.79 338.58 167.881 338.58 145.79C338.58 123.699 320.671 105.79 298.58 105.79C276.489 105.79 258.58 123.699 258.58 145.79C258.58 167.881 276.489 185.79 298.58 185.79Z" fill="url(#paint1_radial_20_45)"/>
<path d="M360.69 110C391.066 110 415.69 85.3756 415.69 55C415.69 24.6243 391.066 0 360.69 0C330.314 0 305.69 24.6243 305.69 55C305.69 85.3756 330.314 110 360.69 110Z" fill="url(#paint2_radial_20_45)"/>
<path d="M347.02 232.12C312.91 206.17 317.44 187.07 330.41 170.01H266.75C279.72 187.07 284.25 206.17 250.14 232.12H347.02Z" fill="url(#paint3_radial_20_45)"/>
<path d="M338.31 141.12C336.21 123.27 342.57 112.51 367.11 109.63L307.45 68.81C313.66 92.73 305.93 102.56 288.54 107.07L338.31 141.12Z" fill="url(#paint4_radial_20_45)"/>
<path d="M428.48 260.79C450.571 260.79 468.48 242.881 468.48 220.79C468.48 198.699 450.571 180.79 428.48 180.79C406.389 180.79 388.48 198.699 388.48 220.79C388.48 242.881 406.389 260.79 428.48 260.79Z" fill="url(#paint5_radial_20_45)"/>
<path d="M538.16 284.19C568.536 284.19 593.16 259.566 593.16 229.19C593.16 198.814 568.536 174.19 538.16 174.19C507.784 174.19 483.16 198.814 483.16 229.19C483.16 259.566 507.784 284.19 538.16 284.19Z" fill="url(#paint6_radial_20_45)"/>
<path d="M377.94 305.91C383.36 263.39 402.16 257.76 423.42 260.47L391.59 205.33C383.31 225.1 369.03 238.57 329.49 222L377.94 305.91Z" fill="url(#paint7_radial_20_45)"/>
<path d="M452.39 252.86C466.8 242.12 479.3 242.25 494.07 262.06L499.58 189.98C481.97 207.32 469.6 205.54 456.99 192.73L452.39 252.86Z" fill="url(#paint8_radial_20_45)"/>
<path d="M428.48 410.79C450.571 410.79 468.48 392.881 468.48 370.79C468.48 348.699 450.571 330.79 428.48 330.79C406.389 330.79 388.48 348.699 388.48 370.79C388.48 392.881 406.389 410.79 428.48 410.79Z" fill="url(#paint9_radial_20_45)"/>
<path d="M476.05 524.97C506.426 524.97 531.05 500.346 531.05 469.97C531.05 439.594 506.426 414.97 476.05 414.97C445.674 414.97 421.05 439.594 421.05 469.97C421.05 500.346 445.674 524.97 476.05 524.97Z" fill="url(#paint10_radial_20_45)"/>
<path d="M329.49 369.58C369.03 353.01 383.31 366.48 391.59 386.25L423.42 331.11C402.16 333.82 383.36 328.19 377.94 285.67L329.49 369.58Z" fill="url(#paint11_radial_20_45)"/>
<path d="M412.66 407.53C429.17 414.64 435.31 425.53 425.54 448.22L490.71 416.96C466.9 410.38 462.25 398.77 467.04 381.45L412.66 407.53Z" fill="url(#paint12_radial_20_45)"/>
<path d="M298.58 485.79C320.671 485.79 338.58 467.881 338.58 445.79C338.58 423.699 320.671 405.79 298.58 405.79C276.489 405.79 258.58 423.699 258.58 445.79C258.58 467.881 276.489 485.79 298.58 485.79Z" fill="url(#paint13_radial_20_45)"/>
<path d="M236.47 591.58C266.846 591.58 291.47 566.956 291.47 536.58C291.47 506.204 266.846 481.58 236.47 481.58C206.094 481.58 181.47 506.204 181.47 536.58C181.47 566.956 206.094 591.58 236.47 591.58Z" fill="url(#paint14_radial_20_45)"/>
<path d="M250.14 359.46C284.25 385.41 279.72 404.51 266.75 421.57H330.41C317.44 404.51 312.91 385.41 347.02 359.46H250.14Z" fill="url(#paint15_radial_20_45)"/>
<path d="M258.85 450.46C260.95 468.31 254.59 479.07 230.05 481.95L289.71 522.77C283.5 498.85 291.23 489.02 308.62 484.51L258.85 450.46Z" fill="url(#paint16_radial_20_45)"/>
<path d="M168.68 410.79C190.771 410.79 208.68 392.881 208.68 370.79C208.68 348.699 190.771 330.79 168.68 330.79C146.589 330.79 128.68 348.699 128.68 370.79C128.68 392.881 146.589 410.79 168.68 410.79Z" fill="url(#paint17_radial_20_45)"/>
<path d="M59 417.39C89.3757 417.39 114 392.766 114 362.39C114 332.014 89.3757 307.39 59 307.39C28.6244 307.39 4 332.014 4 362.39C4 392.766 28.6244 417.39 59 417.39Z" fill="url(#paint18_radial_20_45)"/>
<path d="M219.22 285.67C213.8 328.19 195 333.82 173.74 331.11L205.57 386.25C213.85 366.48 228.13 353.01 267.67 369.58L219.22 285.67Z" fill="url(#paint19_radial_20_45)"/>
<path d="M144.77 338.72C130.36 349.46 117.86 349.33 103.09 329.52L97.58 401.6C115.19 384.26 127.56 386.04 140.17 398.85L144.77 338.72Z" fill="url(#paint20_radial_20_45)"/>
<path d="M168.68 260.79C190.771 260.79 208.68 242.881 208.68 220.79C208.68 198.699 190.771 180.79 168.68 180.79C146.589 180.79 128.68 198.699 128.68 220.79C128.68 242.881 146.589 260.79 168.68 260.79Z" fill="url(#paint21_radial_20_45)"/>
<path d="M121.11 176.61C151.486 176.61 176.11 151.986 176.11 121.61C176.11 91.2343 151.486 66.61 121.11 66.61C90.7343 66.61 66.11 91.2343 66.11 121.61C66.11 151.986 90.7343 176.61 121.11 176.61Z" fill="url(#paint22_radial_20_45)"/>
<path d="M267.67 222C228.13 238.57 213.85 225.1 205.57 205.33L173.74 260.47C195 257.76 213.8 263.39 219.22 305.91L267.67 222Z" fill="url(#paint23_radial_20_45)"/>
<path d="M184.5 184.05C167.99 176.94 161.85 166.05 171.62 143.36L106.45 174.62C130.26 181.2 134.91 192.81 130.12 210.13L184.5 184.05Z" fill="url(#paint24_radial_20_45)"/>
</g>
<defs>
<filter id="filter0_d_20_45" x="0" y="0" width="597.16" height="599.58" filterUnits="userSpaceOnUse" color-interpolation-filters="sRGB">
<feFlood flood-opacity="0" result="BackgroundImageFix"/>
<feColorMatrix in="SourceAlpha" type="matrix" values="0 0 0 0 0 0 0 0 0 0 0 0 0 0 0 0 0 0 127 0" result="hardAlpha"/>
<feOffset dy="4"/>
<feGaussianBlur stdDeviation="2"/>
<feComposite in2="hardAlpha" operator="out"/>
<feColorMatrix type="matrix" values="0 0 0 0 0 0 0 0 0 0 0 0 0 0 0 0 0 0 0.25 0"/>
<feBlend mode="normal" in2="BackgroundImageFix" result="effect1_dropShadow_20_45"/>
<feBlend mode="normal" in="SourceGraphic" in2="effect1_dropShadow_20_45" result="shape"/>
</filter>
<radialGradient id="paint0_radial_20_45" cx="0" cy="0" r="1" gradientUnits="userSpaceOnUse" gradientTransform="translate(312.5 296) rotate(56.6373) scale(946.473 1106.37)">
<stop stop-color="#6BE78E"/>
<stop offset="1" stop-color="white"/>
</radialGradient>
<radialGradient id="paint1_radial_20_45" cx="0" cy="0" r="1" gradientUnits="userSpaceOnUse" gradientTransform="translate(312.5 296) rotate(56.6373) scale(946.473 1106.37)">
<stop stop-color="#6BE78E"/>
<stop offset="1" stop-color="white"/>
</radialGradient>
<radialGradient id="paint2_radial_20_45" cx="0" cy="0" r="1" gradientUnits="userSpaceOnUse" gradientTransform="translate(312.5 296) rotate(56.6373) scale(946.473 1106.37)">
<stop stop-color="#6BE78E"/>
<stop offset="1" stop-color="white"/>
</radialGradient>
<radialGradient id="paint3_radial_20_45" cx="0" cy="0" r="1" gradientUnits="userSpaceOnUse" gradientTransform="translate(312.5 296) rotate(56.6373) scale(946.473 1106.37)">
<stop stop-color="#6BE78E"/>
<stop offset="1" stop-color="white"/>
</radialGradient>
<radialGradient id="paint4_radial_20_45" cx="0" cy="0" r="1" gradientUnits="userSpaceOnUse" gradientTransform="translate(312.5 296) rotate(56.6373) scale(946.473 1106.37)">
<stop stop-color="#6BE78E"/>
<stop offset="1" stop-color="white"/>
</radialGradient>
<radialGradient id="paint5_radial_20_45" cx="0" cy="0" r="1" gradientUnits="userSpaceOnUse" gradientTransform="translate(312.5 296) rotate(56.6373) scale(946.473 1106.37)">
<stop stop-color="#6BE78E"/>
<stop offset="1" stop-color="white"/>
</radialGradient>
<radialGradient id="paint6_radial_20_45" cx="0" cy="0" r="1" gradientUnits="userSpaceOnUse" gradientTransform="translate(312.5 296) rotate(56.6373) scale(946.473 1106.37)">
<stop stop-color="#6BE78E"/>
<stop offset="1" stop-color="white"/>
</radialGradient>
<radialGradient id="paint7_radial_20_45" cx="0" cy="0" r="1" gradientUnits="userSpaceOnUse" gradientTransform="translate(312.5 296) rotate(56.6373) scale(946.473 1106.37)">
<stop stop-color="#6BE78E"/>
<stop offset="1" stop-color="white"/>
</radialGradient>
<radialGradient id="paint8_radial_20_45" cx="0" cy="0" r="1" gradientUnits="userSpaceOnUse" gradientTransform="translate(312.5 296) rotate(56.6373) scale(946.473 1106.37)">
<stop stop-color="#6BE78E"/>
<stop offset="1" stop-color="white"/>
</radialGradient>
<radialGradient id="paint9_radial_20_45" cx="0" cy="0" r="1" gradientUnits="userSpaceOnUse" gradientTransform="translate(312.5 296) rotate(56.6373) scale(946.473 1106.37)">
<stop stop-color="#6BE78E"/>
<stop offset="1" stop-color="white"/>
</radialGradient>
<radialGradient id="paint10_radial_20_45" cx="0" cy="0" r="1" gradientUnits="userSpaceOnUse" gradientTransform="translate(312.5 296) rotate(56.6373) scale(946.473 1106.37)">
<stop stop-color="#6BE78E"/>
<stop offset="1" stop-color="white"/>
</radialGradient>
<radialGradient id="paint11_radial_20_45" cx="0" cy="0" r="1" gradientUnits="userSpaceOnUse" gradientTransform="translate(312.5 296) rotate(56.6373) scale(946.473 1106.37)">
<stop stop-color="#6BE78E"/>
<stop offset="1" stop-color="white"/>
</radialGradient>
<radialGradient id="paint12_radial_20_45" cx="0" cy="0" r="1" gradientUnits="userSpaceOnUse" gradientTransform="translate(312.5 296) rotate(56.6373) scale(946.473 1106.37)">
<stop stop-color="#6BE78E"/>
<stop offset="1" stop-color="white"/>
</radialGradient>
<radialGradient id="paint13_radial_20_45" cx="0" cy="0" r="1" gradientUnits="userSpaceOnUse" gradientTransform="translate(312.5 296) rotate(56.6373) scale(946.473 1106.37)">
<stop stop-color="#6BE78E"/>
<stop offset="1" stop-color="white"/>
</radialGradient>
<radialGradient id="paint14_radial_20_45" cx="0" cy="0" r="1" gradientUnits="userSpaceOnUse" gradientTransform="translate(312.5 296) rotate(56.6373) scale(946.473 1106.37)">
<stop stop-color="#6BE78E"/>
<stop offset="1" stop-color="white"/>
</radialGradient>
<radialGradient id="paint15_radial_20_45" cx="0" cy="0" r="1" gradientUnits="userSpaceOnUse" gradientTransform="translate(312.5 296) rotate(56.6373) scale(946.473 1106.37)">
<stop stop-color="#6BE78E"/>
<stop offset="1" stop-color="white"/>
</radialGradient>
<radialGradient id="paint16_radial_20_45" cx="0" cy="0" r="1" gradientUnits="userSpaceOnUse" gradientTransform="translate(312.5 296) rotate(56.6373) scale(946.473 1106.37)">
<stop stop-color="#6BE78E"/>
<stop offset="1" stop-color="white"/>
</radialGradient>
<radialGradient id="paint17_radial_20_45" cx="0" cy="0" r="1" gradientUnits="userSpaceOnUse" gradientTransform="translate(312.5 296) rotate(56.6373) scale(946.473 1106.37)">
<stop stop-color="#6BE78E"/>
<stop offset="1" stop-color="white"/>
</radialGradient>
<radialGradient id="paint18_radial_20_45" cx="0" cy="0" r="1" gradientUnits="userSpaceOnUse" gradientTransform="translate(312.5 296) rotate(56.6373) scale(946.473 1106.37)">
<stop stop-color="#6BE78E"/>
<stop offset="1" stop-color="white"/>
</radialGradient>
<radialGradient id="paint19_radial_20_45" cx="0" cy="0" r="1" gradientUnits="userSpaceOnUse" gradientTransform="translate(312.5 296) rotate(56.6373) scale(946.473 1106.37)">
<stop stop-color="#6BE78E"/>
<stop offset="1" stop-color="white"/>
</radialGradient>
<radialGradient id="paint20_radial_20_45" cx="0" cy="0" r="1" gradientUnits="userSpaceOnUse" gradientTransform="translate(312.5 296) rotate(56.6373) scale(946.473 1106.37)">
<stop stop-color="#6BE78E"/>
<stop offset="1" stop-color="white"/>
</radialGradient>
<radialGradient id="paint21_radial_20_45" cx="0" cy="0" r="1" gradientUnits="userSpaceOnUse" gradientTransform="translate(312.5 296) rotate(56.6373) scale(946.473 1106.37)">
<stop stop-color="#6BE78E"/>
<stop offset="1" stop-color="white"/>
</radialGradient>
<radialGradient id="paint22_radial_20_45" cx="0" cy="0" r="1" gradientUnits="userSpaceOnUse" gradientTransform="translate(312.5 296) rotate(56.6373) scale(946.473 1106.37)">
<stop stop-color="#6BE78E"/>
<stop offset="1" stop-color="white"/>
</radialGradient>
<radialGradient id="paint23_radial_20_45" cx="0" cy="0" r="1" gradientUnits="userSpaceOnUse" gradientTransform="translate(312.5 296) rotate(56.6373) scale(946.473 1106.37)">
<stop stop-color="#6BE78E"/>
<stop offset="1" stop-color="white"/>
</radialGradient>
<radialGradient id="paint24_radial_20_45" cx="0" cy="0" r="1" gradientUnits="userSpaceOnUse" gradientTransform="translate(312.5 296) rotate(56.6373) scale(946.473 1106.37)">
<stop stop-color="#6BE78E"/>
<stop offset="1" stop-color="white"/>
</radialGradient>
</defs>
</svg>
